<?xml version="1.0" standalone="no"?><!DOCTYPE svg PUBLIC "-//W3C//DTD SVG 1.1//EN" "http://www.w3.org/Graphics/SVG/1.1/DTD/svg11.dtd"><svg class="icon" width="200px" height="200.00px" viewBox="0 0 1024 1024" version="1.1" xmlns="http://www.w3.org/2000/svg"><path d="M512 983.04c260.096 0 471.04-210.944 471.04-471.04S772.096 40.96 512 40.96 40.96 251.904 40.96 512s210.944 471.04 471.04 471.04z m0 40.96C229.376 1024 0 794.624 0 512S229.376 0 512 0s512 229.376 512 512-229.376 512-512 512z" fill="#D6DAE2" /><path d="M510.976 829.44c-58.368 0-115.712 2.048-174.08-3.072-24.576-2.048-49.152-5.12-71.68-16.384-19.456-9.216-28.672-24.576-29.696-47.104-2.048-116.736 80.896-209.92 196.608-219.136 56.32-4.096 112.64-4.096 168.96 0 107.52 9.216 198.656 120.832 185.344 228.352-2.048 17.408-12.288 29.696-27.648 36.864-23.552 12.288-50.176 14.336-75.776 17.408-57.344 4.096-114.688 2.048-172.032 3.072z m162.816-466.944c0 94.208-73.728 166.912-168.96 166.912-93.184 0-167.936-73.728-167.936-166.912 0-92.16 76.8-168.96 168.96-167.936 92.16 1.024 167.936 76.8 167.936 167.936z" fill="#D6DAE2" /></svg>